<svg xmlns="http://www.w3.org/2000/svg" width="800" height="800" viewBox="0 0 32 32" xml:space="preserve"><path d="M28.985 26.775c-.022-.372-.063-.74-.09-1.11-.057-.828-.025-1.652.018-2.48.023-.448-.392-.822-.822-.822a.794.794 0 0 0-.564.234.65.65 0 0 0-.274-.047 7.322 7.322 0 0 0-.259.026c-.022-.26-.032-.521-.042-.779a88.134 88.134 0 0 1-.037-1.018c-.025-.767-.067-1.537-.1-2.304-.033-.765-.008-1.535 0-2.302.004-.368.002-.734.02-1.102.018-.376.045-.752.057-1.13.023-.675.023-1.354.039-2.03.018-.671.027-1.342.029-2.015.111.014.221.029.333.039.182.018.368.022.552.027.082.002.158-.022.233-.045.008 0 .015.005.024.005a.78.78 0 0 0 .773-.773c-.004-.736.008-1.474.023-2.212.018-.818.094-1.633.1-2.451a.812.812 0 0 0-.256-.587c-.091-.258-.285-.479-.563-.549-.221-.055-.458-.045-.685-.061a59.277 59.277 0 0 0-.595-.033c-.311-.014-.619-.041-.93-.043a141.13 141.13 0 0 0-1.127-.005c-.639 0-1.277.006-1.916.025-.493.014-.906.401-.906.904 0 .249.115.485.291.656l.037.586c-.308.019-.617.016-.924.021-.364.004-.726.027-1.088.029-.679.002-1.357.008-2.034.004-.788-.005-1.575-.003-2.362-.013-.756-.01-1.511-.045-2.267-.059-.685-.012-1.37-.004-2.055-.022-.586-.014-1.172-.032-1.758-.049 0-.195-.002-.39-.001-.586a.811.811 0 0 0-.181-.494c0-.009.005-.016.005-.025a.84.84 0 0 0-.245-.593c-.168-.167-.364-.226-.593-.245-.738-.065-1.478.006-2.218.006-.929.002-1.857-.026-2.785-.038h-.01A.848.848 0 0 0 3 4.157c0 .246.115.465.288.62.015.361.034.722.042 1.083.007.386.005.77.001 1.155-.004.384-.002.771 0 1.155.002.366-.006.732.035 1.096.024.22.071.402.234.564a.802.802 0 0 0 .566.233c.07 0 .137-.022.204-.041.325-.002.65-.011.974-.019-.009.771-.004 1.542-.029 2.313-.026.741-.05 1.484-.115 2.222-.031.36-.078.719-.076 1.081.002.378.008.754.008 1.131.002.756-.008 1.511-.002 2.267.006.634.037 1.268.07 1.901.027.486.042.971.076 1.454-.219-.003-.439-.008-.658-.009a.848.848 0 0 0-.716.418c-.228.146-.392.39-.388.674.006.444.029.889.027 1.331-.002.356-.006.712-.012 1.069-.008.343-.008.685-.012 1.028 0 .149.006.298.018.446.018.235.039.454.159.662.005.01.015.016.021.025a.83.83 0 0 0 .764.515c.918-.01 1.834-.018 2.752-.008.274.004.544.025.818.023.253-.002.515-.006.765.02l-.059-.008a.79.79 0 0 0 .856-.581c.009-.033.002-.068.007-.102a.769.769 0 0 0 .416-.671l.001-.167c1.568-.079 3.131-.13 4.701-.099.781.014 1.56.024 2.339.059.715.033 1.427.074 2.144.078.611.004 1.223.021 1.836.023.4 0 .8-.003 1.2-.015.017.264.035.527.072.79a.779.779 0 0 0 .2.343.776.776 0 0 0 .304.179c.154.233.404.402.697.396.732-.016 1.464-.061 2.196-.068.164 0 .329.002.495.006.46.008.922.018 1.372-.076a.731.731 0 0 0 .462-.344c.377.067.818-.154.898-.55.067-.33.051-.653.034-.984zM25.865 4.93c.168-.002.339.025.507.035.145.008.29.01.433.023.184.016.364.029.549.031-.004.628-.014 1.255-.02 1.884-.005.465-.003.93-.002 1.395-.162-.011-.325-.019-.487-.028-.368-.021-.74-.004-1.108-.002-.45.004-.899-.002-1.349-.006-.123-.002-.247-.001-.37-.003-.004-.507.003-1.013-.008-1.52-.01-.578-.028-1.157-.048-1.736l.646-.025c.419-.014.838-.044 1.257-.048zm-18.84.045c.264 0 .532 0 .799.006l.353.015c.01.385.025.769.039 1.154.016.405.014.812.018 1.22.004.333.033.666.045.998l.002.056c-.48-.005-.96-.012-1.438-.004-.647.011-1.293-.01-1.94-.024-.001-.108-.01-.217-.01-.326.002-.378.002-.756-.002-1.133-.007-.649-.012-1.298-.021-1.947.585-.007 1.17-.015 1.757-.015.131.002.265 0 .398 0zm1.056 21.98c-.27-.006-.542-.008-.814-.014-.378-.01-.754-.033-1.131-.045-.326-.009-.651-.01-.976-.013-.011-.376-.008-.754-.011-1.126-.009-.561-.003-1.123-.001-1.684l1.426-.007.742-.008c.19-.002.384-.008.572.016l-.213-.029c.26.037.521.053.783.059-.001.95 0 1.9.03 2.85-.036.001-.073-.002-.109-.001-.103.002-.201.006-.298.002zm12.542-1.361c-.716-.008-1.433-.025-2.147-.043-.75-.02-1.497-.073-2.247-.094-.363-.01-.724-.014-1.086-.014-.404 0-.807.005-1.212.012-1.293.024-2.587.014-3.88.064.013-.606.055-1.212.064-1.82a.777.777 0 0 0-.15-.444.827.827 0 0 0-.819-.799c-.292.002-.581-.002-.873-.006h-.221a6.53 6.53 0 0 1-.484-.008c-.249-.014-.498-.02-.747-.03-.065-.621-.067-1.246-.085-1.87-.01-.354-.033-.709-.033-1.063-.002-.362.008-.722.002-1.083-.013-.757-.005-1.516-.011-2.276-.002-.372-.01-.742-.012-1.114-.004-.35.049-.701.059-1.051.01-.317.002-.634.014-.951.012-.341.033-.679.057-1.018.044-.665.071-1.33.092-1.995.331.007.662.023.993.029.18.004.36.004.538.004h.452c.076 0 .145-.024.215-.044l.013.002c.403 0 .836-.364.797-.797-.026-.272-.024-.546-.032-.818a27.6 27.6 0 0 1-.018-.998c.001-.185-.001-.37-.001-.556.59.006 1.181.008 1.772.006.869-.004 1.74-.008 2.609.016.752.021 1.501.053 2.253.065.411.008.824.006 1.237.004a93.81 93.81 0 0 1 1.061 0c.595.006 1.184 0 1.779-.027.319-.016.64-.027.961-.039.294-.013.591-.03.885-.015.015.57.02 1.14.021 1.71a.81.81 0 0 0-.219.543c0 .443.372.828.82.82.768-.013 1.538-.039 2.308-.041.004.847.017 1.692.021 2.537.004.407.006.814.004 1.219-.002.396-.031.789-.045 1.182a52.565 52.565 0 0 0-.033 2.138c.002.395.002.791.012 1.184.012.384.045.767.061 1.149.048 1.117.118 2.232.132 3.349-.728-.024-1.454-.068-2.182-.108l-.036-.001c-.453 0-.825.424-.825.862 0 .008.004.013.004.021a.813.813 0 0 0-.276.608c.002.528.013 1.055.024 1.583-.529.021-1.057.021-1.586.016zm6.522 1.443a2.219 2.219 0 0 1-.08.013c-.2.018-.402.016-.603.016l-.889.008c-.584.007-1.169.007-1.753.01a17.277 17.277 0 0 1-.007-1.115c.014-.575.022-1.15.027-1.726.577.021 1.153.042 1.73.044.331 0 .664.004.996-.01.229-.01.457-.051.684-.095.001.476.014.951.053 1.426.029.362.069.722.098 1.084.008.108.015.218.021.327-.013 0-.026-.005-.04-.005-.075.001-.154.01-.237.023z" style="fill:#fafbfc"/></svg>