<svg fill="#fff" width="800" height="800" viewBox="0 0 30 30" xmlns="http://www.w3.org/2000/svg"><path d="M16 20a1 1 0 0 1-1 1 1 1 0 0 1-1-1 1 1 0 0 1 1-1 1 1 0 0 1 1 1zM2.5 17h25a.499.499 0 1 1 0 1h-25a.499.499 0 1 1 0-1zm-1-14C.678 3 0 3.678 0 4.5v17c0 .822.678 1.5 1.5 1.5H12v3H9.5a.499.499 0 1 0 0 1h11a.499.499 0 1 0 0-1H18v-3h10.5c.822 0 1.5-.678 1.5-1.5v-17c0-.822-.678-1.5-1.5-1.5zm0 1h27c.286 0 .5.214.5.5v17c0 .286-.214.5-.5.5h-27a.488.488 0 0 1-.5-.5v-17c0-.286.214-.5.5-.5zM13 23h4v3h-4z"/></svg>