<svg xmlns="http://www.w3.org/2000/svg" viewBox="0 0 512 512" xml:space="preserve"><circle style="fill:rgba(255,255,255,.2)" cx="256" cy="256" r="256"/><path style="fill:#1e2c33" d="M76 304V128.364c0-5 3.22-8.364 8-8.364h328c4.784 0 8 3.36 8 8.364V304H76z"/><path style="fill:#f5f5f5" d="M76 304v32c0 4.78 3.22 8 8 8h328c4.784 0 8-3.22 8-8v-32H76z"/><path style="fill:#586874" d="M92 140h312v148H92z"/><path style="fill:#e6e6e6" d="M204 344h88v36h-88z"/><path style="fill:#f5f5f5" d="M320 388c0-4.4-3.6-8-8-8H184c-4.4 0-8 3.6-8 8s3.6 8 8 8h128c4.4 0 8-3.6 8-8z"/><circle style="fill:#1e2c33" cx="248" cy="324" r="8"/><path style="fill:#e6e6e6" d="M436 388c0 4-4 8-8 8h-80c-4 0-8-2.4-8-7.6V248c0-4 4-8 8-8h80c4 0 8 4 8 8v140z"/><path style="fill:#1e2c33" d="M344 256h88v116h-88z"/><path style="fill:#586874" d="M348 260h80v108h-80z"/><circle style="fill:#263740" cx="388" cy="244" r="2"/><path style="fill:#263740" d="M398.32 252h-20.54c-.984 0-1.78-1.008-1.78-2 0-.984.796-2 1.78-2h20.54c.988 0 1.78 1.016 1.78 2 0 .992-.792 2-1.78 2zM387.996 376c-4.412 0-7.992 3.584-7.992 8 0 4.408 3.584 8 7.992 8 4.416 0 8.008-3.592 8.008-8 0-4.416-3.588-8-8.008-8z"/><path style="fill:#e6e6e6" d="M340 268c-2.212 0-4-1.788-4-4v-8c0-2.212 1.788-4 4-4s4 1.788 4 4v8c0 2.212-1.788 4-4 4zM340 288c-2.212 0-4-1.788-4-4v-4c0-2.212 1.788-4 4-4s4 1.788 4 4v4c0 2.212-1.788 4-4 4zM340 304c-2.212 0-4-1.788-4-4v-4c0-2.212 1.788-4 4-4s4 1.788 4 4v4c0 2.212-1.788 4-4 4zM420 244h-4c-2.212 0-4-1.788-4-4s1.788-4 4-4h4c2.212 0 4 1.788 4 4s-1.788 4-4 4z"/></svg>