<svg fill="#fafbfc" height="800" width="800" xmlns="http://www.w3.org/2000/svg" viewBox="0 0 462.8 462.8" xml:space="preserve"><path d="M59.3 273.225H10.5c-5.8 0-10.5 4.7-10.5 10.5v129.7c0 5.8 4.7 10.5 10.5 10.5h48.8c5.8 0 10.5-4.7 10.5-10.5v-129.7c0-5.8-4.7-10.5-10.5-10.5zM157.9 214.925h-48.8c-5.8 0-10.5 4.7-10.5 10.5v188c0 5.8 4.7 10.5 10.5 10.5h48.8c5.8 0 10.5-4.7 10.5-10.5v-188c0-5.8-4.7-10.5-10.5-10.5z"/><path d="M267 246.025v-86.8h33.7c6.2 0 10-6.8 6.7-12.1l-68.6-110.2c-3.1-5-10.4-5-13.5 0l-68.6 110.2c-3.3 5.3.5 12.1 6.7 12.1h33.7v254.2c0 5.8 4.7 10.5 10.5 10.5h48.8c5.8 0 10.5-4.7 10.5-10.4-19.6-22.4-31.5-51.7-31.5-83.8 0-32 11.9-61.3 31.6-83.7z"/><path d="M362.9 229.825c-55.2 0-99.9 44.7-99.9 99.9s44.7 99.9 99.9 99.9 99.9-44.7 99.9-99.9-44.7-99.9-99.9-99.9zm28.7 139.4c-4.4 5.3-10 8.9-16.7 10.7-2.9.8-4.2 2.3-4 5.3.1 2.9 0 5.9 0 8.9 0 2.6-1.3 4-3.9 4.1-3.2.1-6.4.1-9.5 0-2.8-.1-4.1-1.6-4.1-4.3 0-2.2 0-4.3-.1-6.5 0-4.8-.2-5-4.8-5.7-5.9-.9-11.6-2.3-17-4.9-4.2-2-4.6-3.1-3.4-7.5.9-3.3 1.8-6.6 2.8-9.8 1.2-3.8 2.2-4.2 5.7-2.4 5.9 3.1 12.2 4.8 18.8 5.6 4.3.5 8.4.1 12.3-1.6 7.3-3.2 8.5-11.7 2.3-16.8-2.1-1.7-4.5-3-7-4.1-6.4-2.8-13.2-5-19.2-8.6-9.9-5.9-16.1-14-15.4-26 .8-13.6 8.5-22.1 21-26.6 5.1-1.9 5.2-1.8 5.2-7.2v-5.4c.1-4.1.8-4.7 4.8-4.9h3.7c8.6 0 8.6 0 8.6 8.6 0 6.1 0 6.1 6.1 7 4.6.7 9.1 2.1 13.3 4 2.4 1 3.3 2.7 2.5 5.2-1.1 3.7-2.1 7.4-3.3 11.1-1.1 3.5-2.2 4-5.6 2.4-6.7-3.2-13.7-4.6-21.1-4.2-1.9.1-3.8.4-5.6 1.2-6.4 2.8-7.4 9.9-2 14.2 2.8 2.2 5.9 3.8 9.2 5.2 5.7 2.3 11.4 4.6 16.7 7.6 17.1 9.2 21.7 30.7 9.7 45.4z"/></svg>