<svg viewBox="0 0 150 50" xmlns="http://www.w3.org/2000/svg" xml:space="preserve" style="fill:#fff;fill-rule:evenodd;clip-rule:evenodd;stroke-linejoin:round;stroke-miterlimit:2"><path style="fill:#000;fill-rule:nonzero" d="M1.299 15.72H2.7V24H1.299z" transform="matrix(.03813 3.1406 -17.425 .21158 421.003 14.04)"/><path d="M-10.12 42.377c-3.945 0-6.948-1.005-9.008-3.016-2.061-2.01-3.091-5.138-3.091-9.385 0-4.498 1.03-7.727 3.091-9.687 2.06-1.96 5.063-2.94 9.008-2.94 3.946 0 6.949.98 9.009 2.94 2.061 1.96 3.091 5.189 3.091 9.687 0 4.247-1.03 7.375-3.091 9.385-2.06 2.011-5.063 3.016-9.009 3.016Zm0-5.164c2.036 0 3.525-.584 4.467-1.753.942-1.168 1.414-2.996 1.414-5.484 0-2.714-.472-4.63-1.414-5.748-.942-1.119-2.431-1.678-4.467-1.678-2.06 0-3.562.559-4.504 1.678-.942 1.118-1.413 3.034-1.413 5.748 0 2.488.471 4.316 1.413 5.484.942 1.169 2.444 1.753 4.504 1.753ZM5.071 42V17.726h5.201L20.6 32.237V17.726h6.107V42h-5.24L11.139 27.526V42H5.071ZM30.551 42V17.726h6.069v9.423l8.368-9.423h6.935l-8.669 9.913L52.451 42h-6.483l-6.483-10.479-2.865 3.129V42h-6.069ZM61.384 42v-8.933l-8.707-15.341h6.333l5.428 10.064 5.427-10.064h6.333l-8.707 15.341V42h-6.107ZM86.639 42.377c-3.945 0-6.948-1.005-9.009-3.016-2.06-2.01-3.091-5.138-3.091-9.385 0-4.498 1.031-7.727 3.091-9.687 2.061-1.96 5.064-2.94 9.009-2.94 3.945 0 6.948.98 9.009 2.94 2.06 1.96 3.091 5.189 3.091 9.687 0 4.247-1.031 7.375-3.091 9.385-2.061 2.011-5.064 3.016-9.009 3.016Zm0-5.164c2.035 0 3.524-.584 4.467-1.753.942-1.168 1.413-2.996 1.413-5.484 0-2.714-.471-4.63-1.413-5.748-.943-1.119-2.432-1.678-4.467-1.678-2.061 0-3.562.559-4.504 1.678-.943 1.118-1.414 3.034-1.414 5.748 0 2.488.471 4.316 1.414 5.484.942 1.169 2.443 1.753 4.504 1.753ZM101.829 42V17.726h6.069v9.611h9.499v-9.611h6.068V42h-6.068v-9.612h-9.499V42h-6.069Z" style="fill-rule:nonzero" transform="matrix(.95881 0 0 1 26.085 -12)"/><path d="m46.159 71-2.303-9.89h2.426l1.305 5.959 1.352-4.561V61.11h2.027l1.704 5.974 1.367-5.974h2.426L54.175 71h-2.288l-1.659-5.713L48.447 71h-2.288ZM57.722 71v-9.89h7.295v1.905h-4.822v2.073h4.254v1.935h-4.254v2.073h4.822V71h-7.295ZM66.199 71v-9.89h5.221c.994 0 1.743.236 2.25.707.507.471.76 1.136.76 1.996 0 .522-.099.96-.299 1.313-.2.353-.463.627-.791.822.45.164.804.404 1.06.721.256.318.384.794.384 1.429 0 .941-.277 1.661-.83 2.157-.553.497-1.346.745-2.38.745h-5.375Zm2.473-5.866h2.011c.43 0 .743-.097.937-.292.195-.194.292-.466.292-.814 0-.379-.097-.663-.292-.852-.194-.19-.548-.284-1.06-.284h-1.888v2.242Zm0 4.1h2.257c.45 0 .786-.092 1.006-.276.22-.185.33-.512.33-.983 0-.379-.107-.663-.322-.853-.215-.189-.584-.284-1.106-.284h-2.165v2.396ZM79.344 71v-9.89h4.285c1.003 0 1.848.167 2.534.499.686.333 1.208.866 1.566 1.598.358.732.538 1.702.538 2.91 0 1.699-.392 2.938-1.175 3.716S85.154 71 83.629 71h-4.285Zm2.473-1.904h1.474c.532 0 .98-.08 1.344-.238.363-.159.64-.453.829-.883.189-.43.284-1.05.284-1.858 0-.819-.084-1.452-.253-1.897-.169-.445-.435-.757-.799-.937-.363-.179-.832-.268-1.405-.268h-1.474v6.081ZM89.526 71v-9.89h7.294v1.905h-4.822v2.073h4.254v1.935h-4.254v2.073h4.822V71h-7.294ZM101.151 71.154c-.656 0-1.267-.049-1.835-.146a6.087 6.087 0 0 1-1.467-.423v-2.103c.45.194.95.353 1.497.476a7.189 7.189 0 0 0 1.559.184c.614 0 1.072-.056 1.374-.169.302-.113.453-.358.453-.737 0-.256-.074-.461-.222-.614-.149-.154-.389-.29-.722-.407a24.242 24.242 0 0 0-1.359-.423c-.676-.204-1.213-.432-1.613-.683-.399-.251-.685-.555-.86-.914-.174-.358-.261-.798-.261-1.32 0-.942.338-1.664 1.014-2.166.676-.501 1.674-.752 2.994-.752.574 0 1.132.043 1.674.13.543.087.983.187 1.321.3v2.119a7.168 7.168 0 0 0-2.626-.507c-.553 0-1.001.051-1.344.154-.343.102-.514.338-.514.706 0 .215.061.387.184.515s.335.243.637.345c.302.103.715.225 1.237.369.808.215 1.428.473 1.858.775.43.302.727.65.89 1.044.164.395.246.837.246 1.329 0 .87-.338 1.574-1.013 2.111-.676.538-1.71.807-3.102.807ZM106.525 61.11h2.472V71h-2.472zM115.494 71.154c-1.71 0-3.01-.433-3.901-1.298s-1.336-2.086-1.336-3.663c0-1.648.456-2.933 1.367-3.854.911-.921 2.252-1.382 4.023-1.382a11.4 11.4 0 0 1 1.636.107 8.43 8.43 0 0 1 1.389.323v2.119a6.22 6.22 0 0 0-1.374-.338 11.532 11.532 0 0 0-1.467-.092c-1.064 0-1.84.253-2.326.76s-.729 1.293-.729 2.357c0 .973.23 1.692.691 2.158.46.466 1.141.699 2.042.699.594 0 1.147-.082 1.658-.246v-1.873h-2.134V65.38h4.208v4.898c-.348.225-.832.428-1.452.607-.619.179-1.384.269-2.295.269ZM120.5 71v-9.89h2.119l4.208 5.913V61.11h2.487V71h-2.134l-4.208-5.897V71H120.5ZM134.029 71.154c-.655 0-1.267-.049-1.835-.146a6.1 6.1 0 0 1-1.467-.423v-2.103c.451.194.95.353 1.498.476a7.173 7.173 0 0 0 1.558.184c.614 0 1.073-.056 1.375-.169.302-.113.453-.358.453-.737 0-.256-.075-.461-.223-.614-.148-.154-.389-.29-.722-.407a23.979 23.979 0 0 0-1.359-.423c-.676-.204-1.213-.432-1.612-.683-.4-.251-.686-.555-.86-.914-.174-.358-.261-.798-.261-1.32 0-.942.338-1.664 1.013-2.166.676-.501 1.674-.752 2.995-.752.573 0 1.131.043 1.674.13a8.57 8.57 0 0 1 1.32.3v2.119a7.16 7.16 0 0 0-2.626-.507c-.553 0-1 .051-1.343.154-.343.102-.515.338-.515.706 0 .215.062.387.184.515.123.128.336.243.638.345.302.103.714.225 1.236.369.809.215 1.428.473 1.858.775.43.302.727.65.891 1.044.164.395.245.837.245 1.329 0 .87-.337 1.574-1.013 2.111-.676.538-1.71.807-3.102.807Z" style="fill-rule:nonzero" transform="matrix(1.01061 0 0 1 5.535 -26)"/></svg>