<svg width="40" height="41" fill="none" xmlns="http://www.w3.org/2000/svg"><path d="M32.4 22c-.367 0-.75-.117-1.117-.2a15.722 15.722 0 0 1-2.183-.65 3.334 3.334 0 0 0-4.134 1.666l-.366.75a20.303 20.303 0 0 1-4.434-3.333 20.301 20.301 0 0 1-3.333-4.434l.7-.466a3.333 3.333 0 0 0 1.667-4.134 17.215 17.215 0 0 1-.65-2.183c-.084-.367-.15-.75-.2-1.134a5 5 0 0 0-5-4.15h-5a5 5 0 0 0-5 5.684 31.667 31.667 0 0 0 27.533 27.433h.633a5 5 0 0 0 3.334-1.266 5 5 0 0 0 1.666-3.75v-5a5 5 0 0 0-4.116-4.834Zm.833 10a1.667 1.667 0 0 1-.567 1.25 1.749 1.749 0 0 1-1.366.416A28.333 28.333 0 0 1 6.783 9.032 1.817 1.817 0 0 1 7.2 7.666a1.667 1.667 0 0 1 1.25-.567h5a1.667 1.667 0 0 1 1.666 1.317c.067.455.15.905.25 1.35.193.878.45 1.742.767 2.583L13.8 13.432a1.666 1.666 0 0 0-.817 2.217A24.15 24.15 0 0 0 24.65 27.316c.405.167.86.167 1.266 0a1.665 1.665 0 0 0 .95-.867l1.034-2.333a22.84 22.84 0 0 0 2.633.767c.444.1.894.183 1.35.25a1.666 1.666 0 0 1 1.317 1.666l.033 5.2Z" fill="#bababa"/></svg>