<svg width="91" height="15" fill="none" xmlns="http://www.w3.org/2000/svg"><path d="M90.5 5.567A.568.568 0 0 0 89.933 5H85.5L84.034.877a.567.567 0 0 0-1.068 0L81.5 5h-4.433a.568.568 0 0 0-.363 1.003L80 8.75l-1.477 5.032a.56.56 0 0 0 .877.603l4.1-3.135 4.1 3.135a.561.561 0 0 0 .877-.603L87 8.75l3.296-2.747a.568.568 0 0 0 .204-.436ZM71.5 5.567A.568.568 0 0 0 70.933 5H66.5L65.034.877a.567.567 0 0 0-1.068 0L62.5 5h-4.432a.568.568 0 0 0-.364 1.003L61 8.75l-1.477 5.032a.56.56 0 0 0 .877.603l4.1-3.135 4.1 3.135a.561.561 0 0 0 .877-.603L68 8.75l3.296-2.747a.568.568 0 0 0 .204-.436ZM52.5 5.567A.568.568 0 0 0 51.932 5H47.5L46.034.877a.567.567 0 0 0-1.068 0L43.5 5h-4.432a.568.568 0 0 0-.364 1.003L42 8.75l-1.477 5.032a.56.56 0 0 0 .877.603l4.1-3.135 4.1 3.135a.561.561 0 0 0 .877-.603L49 8.75l3.296-2.747a.568.568 0 0 0 .204-.436ZM33.5 5.567A.568.568 0 0 0 32.932 5H28.5L27.034.877a.567.567 0 0 0-1.068 0L24.5 5h-4.433a.568.568 0 0 0-.363 1.003L23 8.75l-1.477 5.032a.56.56 0 0 0 .878.603L26.5 11.25l4.1 3.135a.561.561 0 0 0 .877-.603L30 8.75l3.296-2.747a.568.568 0 0 0 .204-.436ZM14.5 5.567A.568.568 0 0 0 13.932 5H9.5L8.034.877a.567.567 0 0 0-1.068 0L5.5 5H1.067a.568.568 0 0 0-.363 1.003L4 8.75l-1.477 5.032a.56.56 0 0 0 .877.603l4.1-3.135 4.1 3.135a.561.561 0 0 0 .877-.603L11 8.75l3.296-2.747a.568.568 0 0 0 .204-.436Z" fill="#F47D4E"/></svg>