<svg fill="#fafbfc" width="800" height="800" viewBox="0 0 60 60" xml:space="preserve" xmlns="http://www.w3.org/2000/svg"><path d="M59 13V9h1V3h-3V0H3v3H0v6h1v40H0v11h60V49h-1V13zm-2 0v1.5c0 1.379-1.121 2.5-2.5 2.5S52 15.879 52 14.5V9h5v4zm-7 1.5c0 1.379-1.121 2.5-2.5 2.5S45 15.879 45 14.5V9h5v5.5zm-7 0a2.499 2.499 0 0 1-1.929 2.428l-.254.038c-.104.014-.209.034-.317.034a2.502 2.502 0 0 1-2.5-2.5V9h5v5.5zm-23.854 2.46-.22-.033A2.498 2.498 0 0 1 17 14.5V9h5v5.5c0 1.379-1.121 2.5-2.5 2.5-.108 0-.213-.02-.354-.04zM15 14.5c0 1.379-1.121 2.5-2.5 2.5S10 15.879 10 14.5V9h5v5.5zm21 0c0 1.379-1.121 2.5-2.5 2.5S31 15.879 31 14.5V9h5v5.5zm-7 0c0 1.379-1.121 2.5-2.5 2.5S24 15.879 24 14.5V9h5v5.5zm-5 3.738.023.013c.21.139.434.259.667.362.042.019.084.036.127.054.237.096.482.175.738.229.038.008.076.013.114.02.27.051.546.084.831.084s.561-.033.832-.084c.038-.007.076-.012.114-.02a4.512 4.512 0 0 0 .865-.283c.233-.103.456-.223.667-.362.032-.021.062-.045.094-.067a4.548 4.548 0 0 0 .621-.517 4.34 4.34 0 0 0 .308-.342 4.548 4.548 0 0 0 .323.359c.185.185.391.349.606.5.031.022.061.045.094.067.21.139.434.259.667.362.042.019.084.036.127.054.237.096.482.175.738.229.038.008.076.013.114.02.269.051.545.084.83.084s.561-.033.832-.084c.038-.007.076-.012.114-.02a4.512 4.512 0 0 0 .865-.283c.233-.103.456-.223.667-.362l.023-.013V33H24V18.238zM5 2h50v1H5V2zM2 5h56v2H2V5zm6 4v5.5C8 15.879 6.879 17 5.5 17S3 15.879 3 14.5V9h5zm-5 9.238c.716.48 1.575.762 2.5.762 1.421 0 2.675-.675 3.5-1.706C9.825 18.325 11.079 19 12.5 19s2.675-.675 3.5-1.706a4.487 4.487 0 0 0 2 1.43V49H3V18.238zM14 58a1 1 0 1 0 0-2h-1a1 1 0 1 0 0 2h-3a1 1 0 1 0 0-2H9a1 1 0 1 0 0 2H6a1 1 0 1 0 0-2H5a1 1 0 1 0 0 2H2a1 1 0 1 0 0-2v-1h1a1 1 0 1 0 0-2H2v-2h1a1 1 0 0 0 1 1h1a1 1 0 0 0 1-1h1a1 1 0 0 0 1 1h1a1 1 0 0 0 1-1h1a1 1 0 0 0 1 1h1a1 1 0 0 0 1-1h1a1 1 0 0 0 1 1h1a1 1 0 0 0 1-1v2a1 1 0 1 0 0 2v1h-1a1 1 0 1 0 0 2h-3zm26 0H20V18.973c.071-.008.135-.033.205-.044.149-.024.293-.056.438-.094.142-.038.281-.079.418-.13.139-.052.273-.111.406-.176.129-.063.254-.129.375-.204.051-.032.109-.053.159-.087V35h16V18.238c.05.034.108.055.159.087.122.075.247.141.375.204.133.065.266.124.406.176.136.051.275.092.418.13.144.038.288.07.438.094.07.011.134.036.205.044V58zm14 0a1 1 0 1 0 0-2h-1a1 1 0 1 0 0 2h-3a1 1 0 1 0 0-2h-1a1 1 0 1 0 0 2h-3a1 1 0 1 0 0-2h-1a1 1 0 1 0 0 2h-3a1 1 0 1 0 0-2v-1h1a1 1 0 1 0 0-2h-1v-2h1a1 1 0 0 0 1 1h1a1 1 0 0 0 1-1h1a1 1 0 0 0 1 1h1a1 1 0 0 0 1-1h1a1 1 0 0 0 1 1h1a1 1 0 0 0 1-1h1a1 1 0 0 0 1 1h1a1 1 0 0 0 1-1v2a1 1 0 1 0 0 2v1h-1a1 1 0 1 0 0 2h-3zm-12-9V18.724a4.487 4.487 0 0 0 2-1.43C44.825 18.325 46.079 19 47.5 19s2.675-.675 3.5-1.706C51.825 18.325 53.079 19 54.5 19c.925 0 1.784-.282 2.5-.762V49H42z"/><path d="M22 56h16V38H22v18zm2-16h12v14H24V40zM7 53H6a1 1 0 1 0 0 2h1a1 1 0 1 0 0-2zM15 53h-1a1 1 0 1 0 0 2h1a1 1 0 1 0 0-2zM11 53h-1a1 1 0 1 0 0 2h1a1 1 0 1 0 0-2zM47 53h-1a1 1 0 1 0 0 2h1a1 1 0 1 0 0-2zM55 53h-1a1 1 0 1 0 0 2h1a1 1 0 1 0 0-2zM51 53h-1a1 1 0 1 0 0 2h1a1 1 0 1 0 0-2zM5 27a.997.997 0 0 0 .707-.293l4-4a.999.999 0 1 0-1.414-1.414l-4 4A.999.999 0 0 0 5 27zM5 32a.997.997 0 0 0 .707-.293l2-2a.999.999 0 1 0-1.414-1.414l-2 2A.999.999 0 0 0 5 32zM8.29 26.29c-.181.189-.29.45-.29.71 0 .27.109.52.29.71.189.18.45.29.71.29.27 0 .52-.11.71-.29.18-.19.29-.44.29-.71 0-.26-.11-.521-.29-.71-.37-.37-1.04-.37-1.42 0zM10.293 25.707a.997.997 0 0 0 1.414 0l3-3a.999.999 0 1 0-1.414-1.414l-3 3a.999.999 0 0 0 0 1.414zM13.293 26.293l-9 9a.999.999 0 1 0 1.414 1.414l9-9a.999.999 0 1 0-1.414-1.414zM16.71 24.29c-.37-.37-1.061-.37-1.42 0-.181.189-.29.439-.29.71 0 .27.109.52.29.71.189.18.439.29.71.29.27 0 .52-.11.71-.29.18-.19.29-.44.29-.71 0-.271-.11-.521-.29-.71zM44 27a.997.997 0 0 0 .707-.293l4-4a.999.999 0 1 0-1.414-1.414l-4 4A.999.999 0 0 0 44 27zM44 32a.997.997 0 0 0 .707-.293l2-2a.999.999 0 1 0-1.414-1.414l-2 2A.999.999 0 0 0 44 32zM47.29 26.29c-.181.189-.29.45-.29.71s.109.52.29.71c.189.18.439.29.71.29.26 0 .52-.11.71-.29.18-.19.29-.45.29-.71s-.11-.521-.29-.71c-.38-.37-1.05-.37-1.42 0zM49.293 25.707a.997.997 0 0 0 1.414 0l3-3a.999.999 0 1 0-1.414-1.414l-3 3a.999.999 0 0 0 0 1.414zM52.293 26.293l-9 9a.999.999 0 1 0 1.414 1.414l9-9a.999.999 0 1 0-1.414-1.414zM55.71 24.29c-.37-.37-1.05-.37-1.42 0-.181.189-.29.439-.29.71 0 .27.109.52.29.71.189.18.45.29.71.29s.52-.11.71-.29c.18-.19.29-.45.29-.71s-.11-.521-.29-.71z"/></svg>